@startuml 动物
class 动物 {
    +有生命
    +新陈代谢(生命 水)
    +繁殖()
}
class 鸟{
    +翅膀
    +下蛋()
}
interface 飞翔{
    +飞()
}
class 大雁{
    +下蛋()
    +飞翔()
}
class 鸭{
    +下蛋()
}
class 企鹅{
    + 下蛋()
}

class 雁群{
    +V型飞行()
    +一型飞行()
}
class 唐老鸭{
    +讲话()
}

水 <. 动物
动物 .>空气
动物 <|-- 鸟
鸟 <|-- 大雁
鸟 <|-- 鸭
鸟 <|-- 企鹅
飞翔 <|. 大雁
大雁 -o 雁群
鸭--唐老鸭
企鹅 -> 气候 
@enduml